<?xml version="1.0" encoding="UTF-8"?>
<svg id="CG_Logo" data-name="CG Logo" xmlns="http://www.w3.org/2000/svg" viewBox="0 0 679.48 731.47">
  <defs>
    <style>
      .cls-1 {
        fill: #fff;
        stroke-width: 0px;
      }
    </style>
  </defs>
  <path class="cls-1" d="M361.63,731.33c-155.95,3.3-301.37-108.4-347.58-255.31C-78.21,148.69,303.18-124.91,590.68,59.55c13.38,8.27,27.11,15.83,17.8,31.78-1.57,3.08-3.54,6.22-5.52,9.24-6.91,9.61-10.88,19.37-21.05,22.97-11.63,2.13-21.8-7.15-32.48-12.45C279.9-16.9,41.45,184.41,75.27,435.29c.27,2.03.7,4.02,1.24,5.99,2.44,8.8,5.61,21,7.87,28.91,80.27,193.73,328.16,271.38,474.21,112.93,70.04-80.96,78.17-216.34,7.39-299.05-72.09-83.91-270.38-102.24-326.73,2.35-47.6,83.67-21.45,208.44,77.77,241.61,68.38,27.68,140.3-7.79,157.47-81.38,2.35-10.22,4.51-33.72-5.08-40.69-5.61-4.1-14.67-4.89-23.7-5.78-37.72-3.35-81.26.34-120.23,1.84-7.29.03-16.34,4.35-21.94-.47h0c-7.7-8.49-5.13-25.68-5.99-38.13-.26-17.02,5.38-25.32,22.34-25.84,67.57-3.14,157.1-7.36,193.22,13.45,15.6,9.29,24.11,24.49,28.32,43.64h0c10.14,68.58-38.72,165.15-105.06,193.19-107.15,44.84-245.64-25.67-273.11-137.05-31.67-120.89,10.5-250.05,132.61-286.36,57.64-18.1,125.6-17.77,184.69-1.73,328.54,87.99,223,578.24-118.61,568.6h-.32Z"/>
</svg>