<?xml version="1.0" encoding="UTF-8"?>
<svg id="Logo_Draft_v2" xmlns="http://www.w3.org/2000/svg" viewBox="0 0 679.48 731.47">
  <defs>
    <style>
      .cls-1 {
        fill: #f2f2e2;
      }
    </style>
  </defs>
  <path class="cls-1" d="M355.61,642.17c-66.03,0-128.48-24.94-176.49-70.62-49.58-47.19-73.82-107.86-75.52-176.28-1.95-78.79,27.38-151.47,82.59-204.65,53.59-51.62,129.26-81.14,174.53-79.13l.11,44.99c-33.98-2.29-97.96,22.76-143.42,66.55-46.02,44.32-70.46,105.1-68.82,171.13,1.4,56.41,20.68,105.9,61.56,144.8,40.88,38.9,94.46,59.57,150.86,58.15,47.05-1.17,90.82-20.58,123.27-54.67,32.44-34.09,49.67-78.78,48.5-125.82-.97-39.09-17.1-75.46-45.43-102.42-28.33-26.96-65.46-41.27-104.54-40.3-66.73,1.65-119.67,57.29-118.02,124.01.66,26.57,11.63,51.3,30.88,69.63,19.26,18.33,44.52,28.07,71.07,27.4,21.69-.54,41.87-9.49,56.82-25.2,9.79-10.28,15.57-22.66,18.94-36.06h-80.99v-44h128.86l.54,20.94c1.72,69.57-53.48,127.58-123.05,129.3-38.59.95-75.24-13.17-103.21-39.78-27.96-26.61-43.89-62.52-44.85-101.11-1.1-44.34,15.14-86.46,45.71-118.59s71.83-50.43,116.18-51.53c51.08-1.27,99.64,17.44,136.68,52.69,37.03,35.24,58.12,82.79,59.39,133.9,1.46,59.06-20.16,115.16-60.89,157.96-40.73,42.8-95.69,67.17-154.75,68.64-2.17.05-4.35.08-6.51.08Z"/>
</svg>