<?xml version="1.0" encoding="UTF-8"?>
<svg xmlns="http://www.w3.org/2000/svg" viewBox="0 0 619.61 594.78">
  <defs>
    <style>
      .cls-1 {
        fill: #ffa416;
      }

      .cls-1, .cls-2, .cls-3 {
        stroke: #000;
        stroke-miterlimit: 10;
        stroke-width: .5px;
      }

      .cls-2 {
        fill: #88cc42;
      }

      .cls-4 {
        fill: #3fa9f5;
        stroke-width: 0px;
      }

      .cls-3 {
        fill: #006c0e;
      }
    </style>
  </defs>
  <g id="Globe">
    <circle class="cls-4" cx="300.8" cy="301.31" r="275"/>
  </g>
  <g id="Map">
    <g>
      <path class="cls-2" d="M571.96,265.37c-2.53-3.14-5.92-4.88-9.5-3.72-11.57,3.74-13.82-7.44-20.24-11.78-1.35-.91-2.68-3.11-1.07-5.01,1.59-1.87,3.35-.62,4.34,1.08,6.63,11.34,16.13,14.63,26.07,16.46-.36-2.68-.72-5.37-1.08-8.05-.01-.39-.01-.77-.03-1.16-4.36-22.92-5.34-39.38-3.87-57.7-.96-1.2-1.92-2.41-2.87-3.62-9.05-8.83-17.09-18.68-24.12-29.53-9.37-10.24-17.29-21.32-23.81-33.22-2.33-3.02-4.67-6.02-6.99-9.05-6.6-7.9-12.86-16.04-18.79-24.44-.96-1.44-1.88-2.9-2.72-4.42-.95-1.72-1.87-3.47-2.77-5.23-.9-.43-1.8-.87-2.7-1.37-15.9-8.73-30.61-6.66-44.71,4.9-8.88,7.29-16.45,16.46-26,22.86-5.41,3.63-3.4,9.98-1.64,15.2,1.77,5.23,5.6,3.83,8.75,2.05,4.75-2.67,7.6-1.69,8.85,4.48,1.48,7.28,5.54,6.48,9.86,3.66,5.41-3.53,8.99-15.16,6.95-21.76-.36-1.15-.68-2.44-.56-3.6.04-.43,2-1.1,2.07-.96,2.83,5.41,8.64,11.87,7.6,16.16-2.08,8.65-10.12,12.82-17.75,14.8-4.72,1.23-8.81-.85-11-6.86-1.82-5.01-5.38-4.61-6.58.1-3.01,11.77-12.6,14.29-19.82,20.17-2.01,3.14-5.04,4.14-8.1,5.08-11.11,3.43-11.29,4.05-4.24,13.92,1.42,1.99,3.65,3.79,2.36,6.83-1.13,2.67-3.53,3.09-5.88,3.39-4.82.61-10.02-1.2-14.42,1.82-5.94,4.07-.7,11.18-2.84,16.44-2.93,7.22,1.02,10.34,6,12.58,7.55,3.4,16.98.79,21.7-7.01,5.82-9.62,12.09-17.55,23.15-18.8,4.25-.48,17.38,7.5,18.01,12.38.31,2.42-1.34,2.48-2.59,3.02-2.83,1.24-3.18,3.55-2.02,6.37,1.02,2.47,2.5,4.95,5.17,4.33,5.45-1.28,9.09-5.4,11.3-11.14,2.02-5.24-.35-8.77-3.71-11.93-2.79-2.61-6.3-4.58-7.33-11.06,7.22,6.8,15.04,10.56,16.31,21.73.38,3.36,2.71,6.48,4.33,9.59,1.07,2.05,2.63,3.62,4.97,2.96,2.24-.63,3-2.77,3.66-5.05.93-3.23-.86-7.42,2.53-9.84,2.72,1.09,1.88,3.86,2.22,5.92,1.16,7.05,5.13,10.66,10.97,9.82,4.53-.65,8.48,1.37,12.67,1.48,6.36.16,6.74,4.46,5.09,9.16-3.69,10.54-.52,19.82,4.05,28.2,9.27,17.02,17.47,34.64,25.11,52.64,1.13,2.67,2.33,6.15,5.48,5.19,16.55-5.04,33.5-9.58,42.84-28.6-.89-6.62-1.78-13.25-2.67-19.87Z"/>
      <path class="cls-2" d="M200.81,110.29s.09.02.13.04c0-.06,0-.12,0-.18-.03.02-.06.03-.08.05-.02.03-.03.06-.05.09Z"/>
      <path class="cls-2" d="M146.7,414.63c2.23,8.23,6.07,14.14,13.07,17.11,6.03,2.56,9.78,7.67,10.35,14.58.85,10.4,1.18,20.93,1.73,31.34.71,13.56,1.07,27.14,1.74,40.7.24,4.86-.26,10.74,1.9,14.33,2.56,4.25,4.13,8.86,5.46,13.55,5.51,2.74,11.04,5.44,16.55,8.17,1.66.82,3.29,1.69,4.9,2.59,2.41.83,4.8,1.71,7.17,2.65.55.15,1.08.33,1.62.48-.17-.68-.42-1.35-.68-1.86-5.27-10.49-1.5-20.53,4.14-27.41,9.4-11.47,14.95-25.58,23.04-37.84,3.05-4.63,6.46-9.58,5.71-16.08-.98-8.54,3.04-12.35,9.62-13.22,6.2-.81,9.73-4.9,12.33-10.88,3.67-8.43,5.94-17.18,5.15-26.7-.48-5.84.61-10.83,4-15.58,4.23-5.93,9.44-14.59,5.27-20.45-5.14-7.21-10.54-16.3-20.03-18.15-11.17-2.18-20.63-7.04-25.61-19.92-3.68-9.51-8.91-17.01-19.35-16.54-1.46.07-3.18-1.37-4.45-2.57-9.71-9.11-12.22-10.61-25.68-14.92-1.1-.35-2.22-.81-3.19-1.48-11.72-8.09-22.1-6.9-31.79,4.8-1.8,2.18-4.68,4.46-7.5,4.6-.87,2.96-1.21,6.11-1.72,9.27,3.82,2.32,5.4,6.76,2.1,11.04-7.34,9.51-9.47,20.44-11.44,32.11-.79,4.7-.17,7.54,2.03,11.6,4.49,8.27,11.02,15.26,13.57,24.69Z"/>
      <path class="cls-2" d="M223.04,95.11c-3.23,1.31-6.7,1.82-9.96,3.06-3.32,1.26-5.58,4.54-1.6,6.8,6.83,3.89,14.19,6.88,21.59,9,3.82,1.09,6.9-2.67,8.55-6.9.96-2.45,1.62-4.48,4.7-4.68,7.05-.46,5.93-5.88,4.98-11.5-2.02-11.97-9.7-18.27-18.49-21.25-10.75-3.64-22.31-2.52-31.69,5.09-4.41,3.58-6.12,8.94-11.71,1.68-3.15-4.09-5.96.84-8.14,3.85-1.89,2.61-2.29,6.41-6.56,6.82-11.73,1.12-23.54-4.03-35.23.82-1.29.54-3.23-.94-4.86-1.53-9.4-3.42-18.59-6.84-28.86-6.37-5.14,4.24-10.54,8.22-16.23,11.9-8.18,7.48-16.88,14.05-26.12,19.72-4.71,11.31-10.21,22.23-15.56,32.21-.34.63-.7,1.26-1.04,1.9-.92,13.35-2.56,26.61-11.06,38.05-9.23,12.43-8.21,29,.6,43.27,1.83,2.96,1.84,6.17,1.73,9.46-.34,10.25,3.46,19.11,7.17,27.96,1.17,2.78,3.28,4.99,6.24,3.92,3.37-1.22,2.91-4.32,1.99-7.35-.48-1.58-.93-3.18-1.4-4.77,3.93,5.83,10.73,10.08,10.02,18.04-.98,10.88,4.61,15.44,11.63,19.39,6.15,3.45,11.87,8.21,19.33,7.39,2.83-.31,4.73,2.13,6.38,4.47,2.69,3.82,6.23,5.84,10.37,6.43,4.45.63,6.78,2.91,8.4,8.15,2.77,8.94,10,12.56,17.58,13.47,1.73.21,3.31.76,4.62,1.56.51-3.16.85-6.3,1.72-9.27-1.34.07-2.66-.34-3.85-1.49-3.99-3.86-11.07-6.94-6.57-16.5,3.68-7.81-1.05-12.01-7.27-12.89-7.33-1.03-7.44-3.7-3.17-9.59,2.67-3.69,4.12-8.84.52-12.54-3.9-4.01-7.43-.12-10.57,2.78-.88.81-1.62,1.89-2.27,2.97-2.87,4.73-6.98,4-10.95,3.1-4.41-1.01-5.59-5.19-6.28-9.59-1.31-8.41,4.24-20.69,10.66-25.14,7.51-5.21,17.59,2.56,24.23-6.6.16-.22,1.48.78,2.29,1.05,5.36,1.77,9.17,4.94,9.67,12.04.19,2.62,1.67,5.34,4.45,5.04,2.21-.24,3.12-2.77,3.62-5.05.49-2.22,1.06-4.57.91-6.8-.71-10.67,4.12-17.4,11.58-22.45,3.71-2.51,7.71-4.75,9.53-9.65,3.58-9.68,9.77-16.16,18.26-19.84,2.8-1.21,5.07-3.14,6.62-6.05,2.29-4.32,5.38-5.93,9.47-3.67l17.92-5.44c3.57-2.01-3.24-5.63-3.77-9.07-.67-4.35.77-8.65,4.74-10.21,2.21-.87,7.18-.68,6.52,1.93-2.71,10.82,3.92,9.27,9,10.48,3.29.79,6.68,3.57,9.52-.49,2.69-3.85,1.31-8.13.12-12.25-2.62-9.17,1.88-21.14-8.23-27.51-.51-.32.12-3.1.27-4.73.75-8.06-2.31-11.51-9.11-9.01-3.67,1.35-5.08.7-7.3-3.26-4.57-8.17-14.6-10.08-21.78-5.37,0,.06,0,.12,0,.18-.04-.01-.09-.02-.13-.04-5,9.18-3.32,23.28-15.66,27.14-4.07,1.27-1.87,9.02-7.86,10.94,5.37-11.42.12-13.95-7.9-15.37-4.18-.73-8.68-3.98-9.01-9.37-.38-6.21,5.05-7.04,8.89-9.02,10.14-5.19,20.54-7.65,31.54-4.33.02-.03.03-.06.05-.09.03-.02.06-.03.08-.05-.25-14.19,11.49-15.71,18.26-22.47.53-.53,1.69-.42,2.52-.3,2,.29,4.38.58,4.96,3.11.69,3-1.91,3.92-3.63,4.62Z"/>
      <path class="cls-2" d="M461.36,503.69c7.63-18.95,18.42-36.05,32.38-51.3,6.78-10.46,14.51-19.98,23.17-28.56.47-5.03-.23-11.13-2.06-18.64-1.2-4.95-1.74-9.5-.79-14.52,3.26-17.11,13.43-28.89,23.85-40.3,4.94-5.42,8.76-11.35,10.81-18.73.96-3.44,2.14-7.57-.1-10.45-2.73-3.51-5.86-.06-8.6,1.16-4.4,1.95-9.58,4.8-12.63-.55-4.43-7.78-11.07-13.99-14.5-21.78-7.29-16.54-16.09-32.42-20.63-50.49-1.73-6.88-5.71-10.66-12.15-9.95-6.63.73-12.47-1.24-17.89-5.61-3.66-2.95-7.12-2.99-9,2.54-2.97,8.71-7.6,6.36-12.14,2.29-3.38-3.04-6.16-7.02-10.66-8.06-4.82-1.12-8.06-3.35-6.49-10.08.98-4.21-1.83-4.46-4.54-5.23-16.71-4.79-31.95,3.33-45.14,11.5-15.91,9.85-24.73,29.46-32.81,48.11-1.68,3.88-1.63,8.49-.14,12.6,2.08,5.76,1.69,10.97-1.82,15.71-3.4,4.6-2.4,8.4,1.38,11.8,5.54,4.98,9.59,11.19,12.88,18.34,2.61,5.67,7.5,12.03,12.53,10.21,6.47-2.34,12.9.69,18.05-1.18,10.63-3.88,18.99-4.57,29.49,2.3,9.17,6,11.64,5.78,7.75,17.62-1.51,4.61-1.5,8.11,1.35,11.75,1.33,1.7,2.61,3.63,3.4,5.71,5.44,14.43,14.41,28.23,3.79,44.89-2.81,4.41-4.82,11.9-1.14,16.93,9.51,13.01,7.02,31.06,15.21,44.51,3.32,5.45.04,14.26,4.73,18.4,3.72,3.28,7.94.32,12.48-.91Z"/>
      <path class="cls-2" d="M268.65,99.96c.23-3.16.16-8.08,3.01-9.36,8.47-3.81,4.04-11.38,4.47-17.35.33-4.6-3.54-4.37-6.22-5.08-4.43-1.18-9.25-.76-13.15-4.18-1.61-1.42-3.37-2.82-3.1-5.5.28-2.78,2.24-3.54,4.28-4.09,13.19-3.6,26.25-9.01,39.6-10.23,10.43-.96,21.09-1.23,31.66-1.7,7.17-.32,14.36.28,21.46-1.61,3.09-.82,6.51-.88,9.21,1.29,5.26,4.23,10.99,2.71,16.68,2.58,2.5-.06,5.98-.5,6.52,3.06.53,3.46-2.88,4.55-5.17,5.66-2.07,1.01-4.38,1.49-6.62,1.91-2.31.43-5.54.68-6.15,2.89-2.76,9.99-11.96,14.51-14.84,24.57-2.24,7.84-8.84,9.92-15.48,9.88-5.32-.04-10.11.38-14.25,5.06-3.03,3.43-7.35,3.4-11.43,3.22-6.19-.28-10.32,3.04-12.99,9.31-2.46,5.77-3.95,13.13-12.03,10.77-10.92-3.19-15.53-9.3-15.47-21.1Z"/>
      <path class="cls-2" d="M397.87,155.77c-5.02.96-10.15,6.26-14.77,3.29-6.43-4.14,4.01-9.07.65-14.77-2.01,2.87-3.53,6.12-5.86,8.11-3.47,2.97-7.98,5.77-11.47.73-3.13-4.52-.4-9.76,2.86-11.92,5.32-3.53,8.86-7.68,11.73-14.1,2.48-5.55,9-4.1,10.08,1.13,1.51,7.34,4.86,13.13,7.8,19.38,1.48,3.16.3,5.68-1.11,8.24,0,0,.1-.1.1-.1Z"/>
    </g>
  </g>
  <g id="Chuck_There" data-name="Chuck There">
    <g>
      <path class="cls-3" d="M75.24,176.75c12.15,2.78,24.34,4.9,36.45,7.87-8.03,20.57-11.53,49.27-23.63,67.81-8.92,13.67-28.82,19.39-41.42,25.72-14.59,7.34-26.5-5.73-31.94-17.75-15.37-33.9-4.4-74.82,8.62-106.92,14.82-36.52,53.67-69.4,84.31-94.14,1.36-1.1,2.71-2.16,4.04-3.2,7.06-5.53,16.42-13.2,24.31-14.96,19.36-4.3,8.48,47.47,5.68,55.41-.43,1.21-1.14,2.49-1.81,3.68-1.34,2.38-3.01,4.83-4.96,7.29-8.29,10.46-25.7,8.65-37.33,10.81,6.27-11.25,7.31-15.56,6.82-23.05-.37-5.79-11.35,5.58-17.89,12.5-30.07,31.85-38.84,78.75-44.19,119.13-1.83,13.85,15.75,2.92,18.34-2.81,5.77-12.76,8.38-28.17,13.02-42.1.52-1.74,1.05-3.5,1.59-5.3Z"/>
      <path class="cls-3" d="M263.73,13.55c-5.35,15.57-12.31,30.2-19.4,45.01-23.72,49.57-12.6,113.17-12.74,164.32,0,2.11-.21,4.4-.49,6.38-2.18,15.61-6.91,28.67-22.18,35.86-14.23,6.7-33.76,1.99-49.41,2.87,22.49-26.15,27.61-53.81,30.78-87.78-8.06.12-24.18-5.58-28.32,1.76-13.98,24.75-17.57,62.38-38.11,88.31-10.69,1.02-34.03,5.42-35.6,2.76-1.07-1.81,5.51-10.28,8.14-15.94,5.3-11.4,6.93-24.96,9.74-37.07,9.13-39.24,20.12-79,35.36-116.34.73-1.8,1.52-3.47,2.12-5.05,8.4-22.22,12.61-49.37,29.06-67.89,8.68-9.78,22.66-7.39,34.4-9.48-13.3,25.97-25.87,50.79-33.35,79.12,7.77-1.24,17.59,5.43,21.23-2.64,11.65-25.85,21.49-54.54,38.79-76.82,5.82-7.5,18.26-4.81,26.8-6.69,1.96-.43,3.19-.7,3.19-.7Z"/>
      <path class="cls-3" d="M352.19,1.36c-.34,11.9-3.8,23.57-6.71,34.92-7.2,28.05-6.9,47.18,2.22,75.16,9.63,29.55,20.31,60.14,23.03,89.48,3.41,36.78-20.54,70.48-62,71.87-1.5.05-3.06.09-4.59.03-16.69-.58-34.73-5.76-49.61-11.75-8.79-3.54-13.82-16.15-13.47-24.76.07-1.74-.07-3.94-.04-6.05.74-51.09-14.31-118.15,7.62-165.2,7.92-16.98,17.97-34.25,21.95-53,8.82-2.96,25.55-7.81,27.79-4.6,7.72,11.1-18.93,56.93-17.52,87.77,1.77,38.67,11.41,77.96,8.43,115.18-.61,7.67.32,17.81,5.4,22.13,10.58,9,31.49,3.56,34.3-12.53,7.18-41.24-4.39-81.07-14.78-121.08-9.19-35.36,10.51-64.16,13.86-98.68,6.67.55,13.79-.44,20.21.65,2.19.37,3.92.45,3.92.45Z"/>
      <path class="cls-3" d="M446.54,180.1c10.6-.79,21.25-.73,31.87-1.04,4.41,27.92,21.02,68.76-9.79,87.43-25,15.15-71.47,5.51-81.52-25.1-12.43-37.87-21.89-77.97-32.56-116.55-5.4-19.54-10.73-37.51-4.51-57.39,5.01-16.03,13.92-30.69,22.5-45.02.97-1.19,1.92-2.39,2.84-3.3,6.44-6.39,15.41-13.3,25.77-8.89,14.96,6.37,28.11,19.11,35.98,33.87,11.26,21.12,18.66,45.42,26.7,67.89,0,0-1.44-.17-3.8-.41-1.18-.12-2.63-.3-4.16-.39-9.32-.56-19.99-1.98-29.46.3-2.5-13.7-7.72-27.61-14.15-39.63-.58-1.08-1.22-2.09-1.84-2.99-1.24-1.81-2.51-3.24-3.86-4.28-1.35-1.04-2.77-1.69-4.29-1.94-22.12,22.29-12.46,53-4.16,79.53,9.06,28.99,19.6,64.97,39.37,87.04,5.61,6.27,14.55-3.16,14.76-10.97-.81-11.25-2.05-21.86-4.45-32.82-.38-1.72-.8-3.51-1.24-5.34Z"/>
      <path class="cls-3" d="M619.23,267.73c-12.34.77-30.47,4.47-40.56-2.66-23.54-16.64-33.78-52.18-45.94-78.8-.65-1.42-1.22-2.66-1.69-3.68-.93-2.03-1.46-3.19-1.46-3.19,0,0-.13.53-.36,1.46-.23.93-.57,2.26-.96,3.85-7.13,29.15,17.04,66.05,7.65,81.96-2.82,4.77-25.52,5.49-28.72,2.53-20.49-19.01-28.05-96.24-37.96-145.86-.27-1.34-.59-2.73-.91-4.03-6.96-27.74-9.89-61.79-22.92-87.93,9.11,4.68,17.82,10.07,27.1,14.41,13.82,25.44,21.96,54.71,31.46,82.02,1.06-21.65,5.58-47.7-2.47-68.43,9.09,4.3,18.56,9.72,26.39,16.06,11.98,14.16,11.74,34.2,12.23,51.58,26.1,35.78,49.58,75.81,68.32,115.86.42.91.89,1.82,1.24,2.67,2.73,6.71,6.34,13.91,8.81,20.34.45,1.18.75,1.84.75,1.84Z"/>
      <path class="cls-3" d="M59.05,370.43c12.16,31.68,25.75,62.57,35.91,95,7.24,23.11,9.54,40.34,5.55,61.52-.49,2.58-9.42-3.02-13.93-4.65-15.02-25.7-22.29-57.86-30.91-85.86-6.06-19.69-12.47-39.67-21.14-57.68-1.43-2.97-8.89,5.15-10.21,2.19-6.49-14.49-15.7-38.32-10.21-54.29,1.97-5.72,6.2-8.85,10.96-10.18.79-.22,1.63-.42,2.46-.53,12.71-1.8,27.03-.14,40.06-.32,3.47,14.74,10.17,27.98,14.22,42.45.33,1.19.61,2.38.83,3.54.43,2.33.56,4.62.39,6.75-.32,3.87-14,.57-20.56,1.64-1.98.32-3.42.42-3.42.42Z"/>
      <path class="cls-3" d="M191.54,302.07c8.44,56.07,34.62,106.24,39.06,163.21.15,1.95.35,3.96.6,5.89,5.27,40.2,19.16,78.78,15.19,120.49-7,7.32-28.84-1.01-32.48-6.39-15.83-23.37-11.12-72.46-26.82-103.96-2.6-5.22-16.07,1.29-26.33-.41,7.42,22.78,27.85,70.88,7.99,81.79-8.52,4.69-30.8-14.74-41.48-20.87,5.11-22.43,7.77-31.39.72-54.39-12.58-41.09-24.12-84.39-39.95-125-.63-1.61-1.3-3.23-1.87-4.8-4.85-13.25-10.6-26.79-14.37-40.7,10.51-.93,28.33-7.4,35.38-1.89,18.8,14.7,25.61,52.79,30.77,81.06.25,1.39.57,2.94.82,4.25.5,2.63,1.05,5.3,1.67,8.02,4.31-.29,8.63.04,12.97.58,1.45.18,2.93.42,4.36.59,6.55.79,11.71,1.19,17.99,1.84-4.98-36.89-23.32-68.65-33.16-104.15,14.48-1.56,29.15-3.48,43.43-4.77,3.31-.3,5.5-.4,5.5-.4Z"/>
      <path class="cls-3" d="M348.01,528.44c1.11,16.22-.48,32-2.16,47.92-.1.93-.22,1.83-.32,2.68-.84,3.51-1.13,5.74-1.6,9.07-27.79,1.86-55.48,6.45-83.34,6.14-5.94-37.9-14.04-76.78-16.12-114.52-.1-1.85-.09-3.79-.16-5.63-.64-16.58-2.66-33.97-6.09-50.06-8.5-39.93-27.77-80.15-31.8-122.26,45.76-.58,90.25,5.51,135.75,8.36-2.28,15.21-1.68,38.44-12.2,48.7-14.91,14.54-49.64-5.06-62.51,8.91-6.56,7.12.84,30.69,8.67,38.49,12.82,4.93,32.55-9.21,39.68-1.32,12.68,14.02,11.56,47.49,15.05,70.11-13.29,1.92-33.54-3.98-41.17,6.38-5.84,7.93-.35,24.84-.2,35.69.03,2.04.1,3.8.1,4.96-.03,3.75,1.75-1.31,3.23,1.97,17.84,1.49,35.59,5.53,52.85,4.64,1.45-.08,2.36-.24,2.36-.24Z"/>
      <path class="cls-3" d="M437.02,552.5c-6.95,5.72-20.96,17.89-27.87,14.61-23.07-10.97,4.36-86.85-31.04-99.79,2.85,37.5,6.72,75.37,5.06,113.02-8.53,1.08-18.54,5.07-27.16,5.8-1.52.47-3,1.06-4.3,1.43-1.3.37-2.43.51-3.25.06-.74-.99.48-3.29.44-5.74.11-.85.24-1.8.36-2.82,1.51-12.64,2.68-25.7,2.63-37.97-.29-70.76-42.88-156.71-.43-225.23.6-.96,1.32-1.83,2.11-2.61.79-.77,1.66-1.45,2.61-2.05,37.87-5.43,78-7.34,110.43,14.27,27.04,18.02,7.06,53.98-4.73,74.23-1.18,2.03-2.35,4.26-3.55,6.43-7.25,13.04-14.6,26.07-21.45,39.31-15.48,29.89-12.41,74.41-.78,104.68.58,1.52.94,2.37.94,2.37ZM378.34,402.6c17.01-.05,34.76-.38,45.21-15.91,2.37-3.52,4.39-8.04,5.05-12.37.22-1.44.29-2.87.18-4.25-1.96-8.93-11.38-12.69-17.95-13.78-1.26-.21-2.68-.22-4.01-.21-6.66.06-13.94,2.07-17.18,5.36-7.66,7.78-7.98,24.84-10.26,36.38-.57,2.86-1.03,4.78-1.03,4.78Z"/>
      <path class="cls-3" d="M546.75,474.99c-5.96,8.43-12.66,16.36-18.31,24.97-.91,1.39-1.8,2.78-2.66,4.16-2.59,4.13-4.96,8.18-7.2,12.09-24.18,11.99-62.08,32.56-75.98,28.87-6.32-1.68-1.91-26.52.92-35.88,8.06-26.73,16.7-55.07,25.93-82.29.87-2.55,1.73-5.09,2.58-7.58,6.77-20.01,11.79-40.58,12.95-61.73.73-13.37-1.14-31.47,9.04-41.25,23.13-22.21,68.49-19.32,93.77-6.11,13.51,7.06,8.3,40.97,6.5,53.78-18.83.44-36.96,2.14-55.7-.63-1.72,9.52-6.78,18.92-10.78,27.6,13.86,3.03,42.99,4.87,46.91,16,3.08,8.73-11.77,29.91-20.67,36.8-17.98,13.91-41.71-6.07-57.75,18.13-.82,1.76-1.67,3.65-2.52,5.62-3.4,7.86-6.91,16.66-9.85,22.77,6.72-.72,13.85-1.94,21.22-3.58,1.23-.27,2.49-.54,3.7-.85,11.37-2.94,23.33-6.03,34.52-9.69,2.14-.7,3.39-1.2,3.39-1.2Z"/>
    </g>
  </g>
  <g id="Went">
    <g>
      <path class="cls-1" d="M240.39,237.44c-4.59,4.87-4.59,10.87-7.59,16.87-11,27,1,81-31,81-18,0-16-34-25-52-2,18,4,40-9,51-15,13-31-11-35-26-6-22-5-45-10-67,9,0,21-3,24,1,11,15,6,36,11,54,7-18,2-57,27-54,23,3,14,35,17,54,5-20,7-40,17.85-57.81l20.74-1.06Z"/>
      <path class="cls-1" d="M312.7,321.64c7.09,25.67-25.91,32.67-43.91,27.67-29-9-44-39-41-69,3-28,25-52,54-52,15,1,44,13,29,24-11,8-46-5-46,16,1,14,22,0,34,6,9,6,9,20,0,26-12,7-33-9-35,9-1,12,15,15,24.9,11.6,11.81.42,24.01.73,24.01.73Z"/>
      <path class="cls-1" d="M408.16,342.85c-10.59,1.37-19.09-.73-26.08-5.11-23.28-15.43-26.28-45.43-38.28-68.43,0,23,19,61-7,72-9,3-19-6-24-15-11-24-10-53,3-76.4,4.06-6.35,10.5-11.6,18.12-14.22s15.88-2.38,22.88,2.62c9.5,8,15.25,18,20.26,28.37,5.01,10.37,9.26,21.13,15.74,30.63-2.5-10.5-5.25-21.5-6.75-32.12s-1.75-20.88.75-29.88c2-8,21,2,27,14,11,26,3,53-1.78,78.9-2.3,9.06-3.86,14.64-3.86,14.64Z"/>
      <path class="cls-1" d="M461.47,260.94c2.32,26.37,14.32,63.37-14.68,77.37-7,4-14-6-13-12,6-31,8-59-21-81-2-1-2-6-3-9,23,1,67-9,68.42,25.67l-16.74-1.05Z"/>
    </g>
  </g>
</svg>